<svg width="19" height="19" viewBox="0 0 19 19" fill="none" xmlns="http://www.w3.org/2000/svg">
<g id="Layer_1" clip-path="url(#clip0_4_676)">
<path id="Vector" d="M1.96486 9.81528C1.96486 11.3614 1.96486 12.9055 1.96486 14.4516C1.96486 15.7619 2.97918 16.8792 4.27208 16.9735C4.59743 16.9971 4.92703 16.9907 5.2545 16.9907C7.93811 16.9907 10.6238 16.9757 13.3074 17.0014C14.3877 17.0121 15.217 16.624 15.772 15.6825C15.9974 15.2987 16.091 14.8784 16.091 14.428C16.0846 12.5516 16.0846 10.6752 16.0867 8.80094C16.0867 8.20049 16.2951 7.8681 16.7566 7.70512C17.2605 7.52713 17.7794 7.76302 17.958 8.27555C18.0218 8.45783 18.0558 8.65941 18.0558 8.85027C18.0644 10.7074 18.1111 12.5688 18.0516 14.4237C17.975 16.8277 16.495 18.6441 13.9666 18.9421C13.6945 18.9743 13.4201 18.9893 13.1458 18.9893C10.3112 18.9936 7.47666 19.0172 4.64208 18.9829C2.68148 18.9593 1.22272 18.0543 0.382764 16.2337C0.121209 15.6697 0 15.0671 0 14.4409C0 11.4043 0 8.36776 0.00425294 5.33119C0.00850588 3.40117 1.18232 1.67702 2.95579 1.03368C3.3662 0.885707 3.81701 0.787062 4.25081 0.782773C6.65159 0.757039 9.05238 0.767761 11.4532 0.769906C11.9125 0.769906 12.2782 1.01866 12.4101 1.40038C12.5547 1.81641 12.4292 2.31178 12.0422 2.56054C11.8487 2.68492 11.5807 2.74282 11.3468 2.74496C9.08853 2.75568 6.82809 2.75783 4.56978 2.74496C3.70431 2.73853 3.04936 3.09451 2.50073 3.75286C2.04141 4.30399 1.96911 4.93875 1.97124 5.60997C1.97124 7.01246 1.97124 8.41494 1.97124 9.81742C1.96911 9.81742 1.96698 9.81742 1.96486 9.81742V9.81528Z" fill="#737373"/>
<path id="Vector_2" d="M9.2565 9.66307C9.66478 9.20201 10.0497 8.77311 10.4261 8.33778C11.8657 6.67797 13.2862 5.00099 14.7449 3.35833C15.5934 2.40189 16.4929 1.48835 17.3881 0.574805C17.5944 0.364647 17.8623 0.197378 18.1303 0.0708545C18.2982 -0.0084909 18.5258 -0.0149243 18.7172 0.0150983C19.0404 0.0644211 19.068 0.137333 18.8979 0.416114C18.1707 1.60844 17.4668 2.81792 16.6991 3.98451C14.7215 6.98891 12.7163 9.97402 10.7195 12.9656C10.4558 13.3601 10.1496 13.7075 9.70519 13.922C9.1757 14.1772 8.69724 14.0807 8.26344 13.744C8.02315 13.5574 7.8105 13.3151 7.63613 13.0621C6.49422 11.4172 5.37144 9.75742 4.23378 8.11047C3.98924 7.75663 3.98286 7.42424 4.19338 7.06397C4.4762 6.57932 4.8696 6.20833 5.36506 5.97029C5.58622 5.86521 5.85628 5.83733 6.10507 5.83519C6.22628 5.83519 6.38152 5.94885 6.46445 6.05607C7.13854 6.91815 7.79987 7.7888 8.46758 8.65731C8.71638 8.98113 8.97156 9.29851 9.25438 9.66092L9.2565 9.66307Z" fill="#737373"/>
</g>
<defs>
<clipPath id="clip0_4_676">
<rect width="19" height="19" fill="white"/>
</clipPath>
</defs>
</svg>
